<?xml version="1.0" encoding="UTF-8"?>
<svg data-bbox="15.7 11.7 216.3 216.3" viewBox="0 0 244.5 239.4" xmlns="http://www.w3.org/2000/svg" data-type="color">
    <g>
        <path fill="#010101" d="M231.9 119.8c0 59.702-48.398 108.1-108.1 108.1-59.702 0-108.1-48.398-108.1-108.1 0-59.702 48.398-108.1 108.1-108.1 59.702 0 108.1 48.398 108.1 108.1z" data-color="1"/>
        <path d="M123.8 15.3c27.9 0 54.2 10.9 73.9 30.6 19.7 19.7 30.6 46 30.6 73.9s-10.9 54.2-30.6 73.9c-19.7 19.7-46 30.6-73.9 30.6s-54.2-10.9-73.9-30.6c-19.7-19.7-30.6-46-30.6-73.9s10.9-54.2 30.6-73.9c19.8-19.7 46-30.6 73.9-30.6m0-3.6c-59.7 0-108.1 48.4-108.1 108.1S64.1 228 123.8 228 232 179.6 232 119.8 183.6 11.7 123.8 11.7z" fill="#186734" data-color="2"/>
        <path d="m32.6 97.5-1.5 6.4 15.1 3.5-.5 2-17.1-4 1.9-8.4c.3-1.2 1-2.2 2.1-2.9 1.1-.7 2.3-.9 3.5-.6l12.6 2.9-.5 2-12.6-2.9c-.7-.2-1.3-.1-1.9.3-.5.4-.9 1-1.1 1.7z" fill="#ffffff" data-color="3"/>
        <path d="m49.6 88.9 3.7-7.8 1.9.9-4.6 9.7-7-3.3-1.9-.9-2.9-1.5c-1.1-.5-1.9-1.4-2.3-2.6-.4-1.2-.4-2.4.2-3.5l2.7-5.6 1.9.9-2.7 5.6c-.3.6-.3 1.2-.1 1.9.2.6.6 1.1 1.2 1.4l2.9 1.4 3.1-6.5 1.9.9-3.1 6.5 5.1 2.5z" fill="#ffffff" data-color="3"/>
        <path d="m58.4 76.8-1.6 2-3.1-10.4-10.8-.3 1.6-2 8.6.3-2.5-8.3 1.6-2.1 3.1 10.4 10.8.3-1.6 2.1-8.6-.3 2.5 8.3z" fill="#ffffff" data-color="3"/>
        <path d="m73.2 60.5-8.8-10.8c-.3-.4-.6-.9-.7-1.4l-5 4.1-1.3-1.6 7.6-6.2.8-.7 3.3-2.6 1.3 1.6-3.3 2.6-.8.7c-.3.3-.5.6-.6 1-.1.4.1.8.3 1.1l8.8 10.8-1.6 1.4z" fill="#ffffff" data-color="3"/>
        <path d="m76.9 47.2 6.7-3.9 1 1.8-6.7 3.9-1-1.8z" fill="#ffffff" data-color="3"/>
        <path d="m89.5 44.9-4.7-12.3 1.9-.7 4.7 12.3c.2.6.6 1 1.2 1.3.6.3 1.2.3 1.8.1l5.9-2.2.7 1.9-5.9 2.2c-1.1.4-2.3.4-3.4-.1-1-.6-1.8-1.4-2.2-2.5z" fill="#ffffff" data-color="3"/>
        <path d="m106.2 41.8 8.5-1.5.4 2-10.5 1.9-1.4-7.6-.4-2.1-.6-3.2c-.2-1.2 0-2.3.7-3.4.7-1 1.7-1.7 2.9-1.9l6.2-1 .4 2.1-6.1 1.1c-.7.1-1.2.5-1.6 1-.4.5-.5 1.1-.4 1.8l.6 3.2 7-1.3.4 2.1-7 1.3.9 5.5z" fill="#ffffff" data-color="3"/>
        <path d="m135.4 24.8-8 17.3-1.5-.1-6.8-17.8 2.3.1 5.4 13.9 6.3-13.5 2.3.1z" fill="#ffffff" data-color="3"/>
        <path d="m139.6 41.4 8.4 2-.5 2-10.4-2.5 1.8-7.5.5-2.1.8-3.1c.3-1.2 1-2.1 2-2.8 1.1-.7 2.2-.8 3.4-.6l6 1.5-.5 2-6-1.4c-.7-.2-1.3-.1-1.8.3-.6.3-.9.8-1.1 1.5l-.8 3.1 7 1.7-.5 2.1-6.9-1.7-1.4 5.5z" fill="#ffffff" data-color="3"/>
        <path d="m152.7 42.6 5.4-12 1.9.8-5.4 12c-.3.6-.3 1.2 0 1.8.2.6.6 1 1.2 1.3l5.8 2.6-.8 1.9-5.8-2.6c-1.1-.5-1.9-1.3-2.3-2.4-.6-1.2-.5-2.3 0-3.4z" fill="#ffffff" data-color="3"/>
        <path d="m167.1 45 6.5 4.1-1.1 1.8-6.5-4.1 1.1-1.8z" fill="#ffffff" data-color="3"/>
        <path d="m179.6 65.2-4.3-4a4.1 4.1 0 0 1-1.4-3.1c0-1.2.4-2.3 1.2-3.2l6-6.4c.8-.9 1.9-1.4 3.1-1.4 1.2 0 2.3.4 3.2 1.2l4.3 4c.9.8 1.4 1.9 1.4 3.1 0 1.2-.4 2.3-1.2 3.2l-.7.8-1.5-1.4.7-.8c.4-.5.6-1 .6-1.7 0-.6-.3-1.2-.7-1.6l-4.3-4c-.5-.4-1-.6-1.7-.6-.6 0-1.2.3-1.6.7l-6 6.4c-.4.5-.6 1-.6 1.7 0 .6.3 1.2.7 1.6l4.3 4c.5.4 1 .6 1.7.6.6 0 1.2-.3 1.6-.7l2.3-2.4-4.6-4.3 1.4-1.5 6.2 5.8-3.7 4c-.8.9-1.9 1.4-3.1 1.4-1.3-.2-2.4-.6-3.3-1.4z" fill="#ffffff" data-color="3"/>
        <path d="m190.9 79.6-3.5-5.3c-.6-1-.8-2-.6-3.1.2-1.1.8-2 1.8-2.7l7.6-5.1c1-.6 2-.8 3.1-.6 1.1.2 2 .8 2.7 1.8l3.5 5.3c.7 1 .9 2 .6 3.1-.2 1.1-.8 2-1.8 2.7l-7.6 5.1c-1 .6-2 .8-3.1.6-1.1-.2-2-.8-2.7-1.8zm6.5-14.5-7.6 5.1c-.5.3-.8.8-.9 1.3-.1.6 0 1.1.3 1.6l3.5 5.3c.3.5.8.8 1.3.9.6.1 1.1 0 1.6-.3l7.6-5.1c.5-.3.8-.8.9-1.3.1-.6 0-1.1-.3-1.6l-3.5-5.3c-.3-.5-.8-.8-1.3-.9-.6-.1-1.2 0-1.6.3z" fill="#ffffff" data-color="3"/>
        <path d="m198.8 84.6 12.2-4.9.8 1.9-12.2 4.9c-.6.2-1 .7-1.3 1.2-.3.6-.3 1.2 0 1.8l2.4 5.9-1.9.8-2.4-5.9c-.5-1.1-.4-2.3 0-3.4s1.3-1.8 2.4-2.3z" fill="#ffffff" data-color="3"/>
        <path d="m209.2 107.2-1.4-7-7.6 1.5-.4-2 7.6-1.5 2.1-.4 3.1-.6c1.2-.2 2.3 0 3.4.7s1.7 1.7 1.9 2.9l1.2 6.1-2.1.4-1.2-6.1c-.1-.7-.5-1.2-1-1.6s-1.2-.5-1.8-.4l-3.1.6 1.4 7-2.1.4z" fill="#ffffff" data-color="3"/>
        <path fill="#010101" d="M195.2 119.8c0 39.433-31.967 71.4-71.4 71.4-39.433 0-71.4-31.967-71.4-71.4 0-39.433 31.967-71.4 71.4-71.4 39.433 0 71.4 31.967 71.4 71.4z" data-color="1"/>
        <path d="M123.8 192.6C83.7 192.6 51 160 51 119.8S83.7 47 123.8 47s72.8 32.7 72.8 72.8-32.6 72.8-72.8 72.8zm0-142.7c-38.6 0-69.9 31.4-69.9 69.9s31.4 69.9 69.9 69.9 69.9-31.4 69.9-69.9-31.3-69.9-69.9-69.9z" fill="#186734" data-color="2"/>
        <path fill="#010101" d="M17.7 121.2h34.8" data-color="1"/>
        <path fill="#186734" d="M52.5 119.4v3.6H17.7v-3.6h34.8z" data-color="2"/>
        <path fill="#010101" d="M195.2 121.2H230" data-color="1"/>
        <path fill="#186734" d="M230 119.4v3.6h-34.8v-3.6H230z" data-color="2"/>
        <path d="M110.4 96.5H88.1v52.4h-7V89.3h29.3c4.3 0 7.9 1.5 11 4.6 3.1 3.1 4.6 6.8 4.6 11v43.9h-7V105c0-2.4-.8-4.4-2.5-6.1-1.7-1.6-3.7-2.4-6.1-2.4z" fill="#ffffff" data-color="3"/>
        <path d="M136.3 133.9V89.3h7v44.6c0 2.2.8 4 2.3 5.6 1.5 1.5 3.4 2.3 5.6 2.3h21.5v7h-21.5c-4.1 0-7.7-1.5-10.6-4.4-2.9-2.8-4.3-6.3-4.3-10.5z" fill="#ffffff" data-color="3"/>
        <path d="m40.6 139.4-.4-1.6 1.4-.3 1.1 4.8-1.4.3-.4-1.6-8.4 1.9-.4-1.5 8.5-2z" fill="#ffffff" data-color="3"/>
        <path d="m44.6 148.1 1.5 4-1.3.5-1-2.6-2.5 1 .8 2-1.3.5-.8-2-2.9 1.1 1 2.6-1.3.5-1.5-4 9.3-3.6z" fill="#ffffff" data-color="3"/>
        <path d="M40.6 162.8c.2-.6.7-1 1.4-1.4l.5-.3.7 1.3-.6.3c-.6.3-.7.7-.5 1.2.1.2.3.4.5.4s.5 0 .8-.2c.4-.2.7-.5.8-.8.2-.3.4-.8.5-1.5.2-.8.4-1.5.7-1.9.3-.4.7-.8 1.2-1.1.7-.4 1.3-.5 1.9-.3.6.1 1 .6 1.4 1.2.4.7.4 1.3.2 1.8-.2.6-.7 1-1.4 1.4l-.4.2-.7-1.3.5-.2c.3-.2.5-.3.6-.5.1-.2.1-.4-.1-.6-.3-.5-.7-.5-1.2-.2-.3.2-.6.4-.8.7-.2.3-.4.8-.5 1.5-.2.9-.4 1.5-.7 2-.3.4-.7.8-1.3 1.1-.7.4-1.4.5-2 .4-.6-.1-1.1-.6-1.4-1.3-.2-.7-.3-1.3-.1-1.9z" fill="#ffffff" data-color="3"/>
        <path d="m54 169.2-1-1.3 1.2-.8 2.9 4-1.2.8-1-1.3-7 5.1-.9-1.3 7-5.2z" fill="#ffffff" data-color="3"/>
        <path d="M61.5 183.2c0-.2.1-.4.2-.5.1-.1.3-.2.5-.2s.4.1.5.2c.1.1.2.3.2.5s-.1.4-.2.5c-.1.1-.3.2-.5.2s-.4-.1-.5-.2c-.1-.1-.2-.3-.2-.5z" fill="#ffffff" data-color="3"/>
        <path d="M74.1 187.7 76 189l-3.2 6.6 4.9-5.4 1.9 1.3-5.6 8.4-1.2-.8 4.3-6.3-5.2 5.7-1.1-.7 3.3-7-4.3 6.3-1.1-.8 5.4-8.6z" fill="#ffffff" data-color="3"/>
        <path d="m85.4 194.7 3.9 1.9-.6 1.3-2.5-1.2L85 199l2 .9-.6 1.3-2-.9-1.4 2.8 2.5 1.2-.6 1.3-3.9-1.9 4.4-9z" fill="#ffffff" data-color="3"/>
        <path d="m96.4 199.3 2 .7-1.6 10.1-1.5-.5.4-2-1.7-.6-.9 1.8-1.4-.5 4.7-9zm-.5 7 .9-5-2.2 4.5 1.3.5z" fill="#ffffff" data-color="3"/>
        <path d="M104.6 211.5c-.3-.5-.4-1.2-.2-2l.1-.6 1.5.3-.1.7c-.1.6.1 1 .6 1.1.3.1.5 0 .6-.1.2-.1.3-.4.3-.7.1-.4.1-.8-.1-1.2-.1-.4-.4-.8-.8-1.3-.5-.7-.9-1.3-1.1-1.8-.2-.5-.2-1-.1-1.6.1-.8.5-1.4.9-1.7.5-.4 1.1-.5 1.8-.3.7.1 1.3.5 1.6 1 .3.5.4 1.2.2 2l-.1.4-1.5-.3.1-.5c.1-.3 0-.6-.1-.8-.1-.2-.3-.3-.5-.3-.5-.1-.8.2-1 .8-.1.4 0 .7.1 1.1.1.3.4.8.8 1.3.5.7.9 1.3 1.1 1.8.2.5.2 1.1.1 1.7-.2.8-.5 1.4-1 1.8-.5.4-1.1.5-1.9.3-.5-.2-1-.6-1.3-1.1z" fill="#ffffff" data-color="3"/>
        <path d="M116.8 213.3c-.4-.5-.5-1.1-.5-1.9l.4-7.7 1.6.1-.4 7.8c0 .3 0 .6.2.8.1.2.3.2.6.3.3 0 .5-.1.6-.2.1-.1.2-.4.3-.7l.4-7.8 1.5.1-.4 7.7c0 .8-.3 1.4-.7 1.8-.4.4-1 .6-1.8.6-.8-.2-1.4-.5-1.8-.9z" fill="#ffffff" data-color="3"/>
        <path d="m128.1 203.9 2.3-.2c.8-.1 1.4.1 1.8.4.4.3.6.9.7 1.7v.6c.1 1-.2 1.7-.9 2.1.4.1.7.3.9.6.2.3.3.8.4 1.4l.1 1.8c0 .3.1.5.1.7 0 .2.1.3.2.5l-1.6.1c-.1-.2-.1-.3-.2-.5 0-.1-.1-.4-.1-.8l-.1-1.8c0-.5-.1-.8-.3-.9-.2-.2-.4-.2-.8-.2h-.5l.3 4.3-1.6.1-.7-9.9zm2.5 4.1c.3 0 .5-.1.7-.3.1-.2.2-.5.2-.8l-.1-.8c0-.4-.1-.6-.3-.8-.1-.2-.4-.2-.6-.2l-.7.1.2 2.9.6-.1z" fill="#ffffff" data-color="3"/>
        <path d="m139.4 202.5 4.2-.9.3 1.4-2.7.6.6 2.6 2.1-.5.3 1.4-2.1.5.6 3 2.7-.6.3 1.4-4.2.9-2.1-9.8z" fill="#ffffff" data-color="3"/>
        <path d="M155.9 202.8c-.2-.1-.3-.2-.4-.4-.1-.2-.1-.4 0-.6.1-.2.2-.3.4-.4.2-.1.4-.1.6 0 .2.1.3.2.4.4.1.2.1.4 0 .6-.1.2-.2.3-.4.4h-.6z" fill="#ffffff" data-color="3"/>
        <path d="m164.2 193.6 2-1.2c.7-.4 1.3-.5 1.9-.3.6.2 1 .6 1.4 1.3l.5.9c.4.7.6 1.3.4 1.9-.1.6-.5 1-1.2 1.4l-.6.4 2.1 3.6-1.4.8-5.1-8.8zm4.3 2.8c.2-.1.4-.3.4-.5s0-.4-.2-.7l-.6-1c-.2-.3-.4-.5-.5-.5-.2-.1-.4 0-.6.1l-.6.4 1.6 2.7.5-.5z" fill="#ffffff" data-color="3"/>
        <path d="m173.6 187.7 3.4-2.6.9 1.1-2.2 1.7 1.6 2.1 1.7-1.3.9 1.1-1.7 1.3 1.9 2.5 2.2-1.7.9 1.1-3.4 2.6-6.2-7.9z" fill="#ffffff" data-color="3"/>
        <path d="m181.8 180.8 1.7-1.7c.6-.6 1.1-.9 1.7-.9.5 0 1.1.3 1.6.8l.4.4c.7.7 1 1.5.7 2.1.4-.2.7-.2 1.1-.1.4.1.8.4 1.2.8l1.3 1.2.5.5c.1.1.3.2.5.3l-1.1 1.1c-.2-.1-.3-.2-.4-.2-.1-.1-.3-.3-.6-.5l-1.3-1.3c-.3-.3-.6-.5-.8-.5-.2 0-.5.1-.7.4l-.4.4 3.1 3-1.1 1.1-7.4-6.9zm4.6 1.5c.2-.2.3-.5.3-.7 0-.2-.1-.5-.4-.7l-.6-.5c-.3-.3-.5-.4-.7-.4-.2 0-.4.1-.6.3l-.5.5 2 2 .5-.5z" fill="#ffffff" data-color="3"/>
        <path d="m189.5 172.4 2.5-3.3 1.1.9-1.6 2.1 2.2 1.7 1.2-1.6 1.1.9-1.2 1.6 3.5 2.7-1 1.3-7.8-6.3z" fill="#ffffff" data-color="3"/>
        <path d="M204.1 168.2c-.6.1-1.2 0-1.9-.4l-4.6-2.7c-.7-.4-1.1-.9-1.3-1.5-.2-.6-.1-1.2.3-1.9s.9-1.1 1.5-1.2c.6-.1 1.2 0 1.9.4l4.6 2.7c.7.4 1.1.9 1.3 1.5.2.6.1 1.2-.3 1.9-.5.7-.9 1.1-1.5 1.2zm-.3-3.1-4.8-2.8c-.6-.3-1-.3-1.3.2-.3.5-.1.9.5 1.2l4.8 2.8c.6.3 1 .3 1.3-.2.3-.5.1-.9-.5-1.2z" fill="#ffffff" data-color="3"/>
        <path d="m200.8 153.9.9-2.2c.3-.8.7-1.2 1.2-1.4.5-.2 1.1-.2 1.8.1l.6.2c1 .4 1.5 1 1.4 1.7.3-.3.6-.5 1-.5s.9.1 1.4.3l1.6.7c.3.1.5.2.7.2.2 0 .4.1.5.1l-.6 1.5c-.2 0-.3 0-.5-.1-.1 0-.4-.1-.7-.3l-1.7-.7c-.4-.2-.8-.2-1-.2-.2.1-.4.3-.5.6l-.2.5 4 1.6-.6 1.5-9.3-3.6zm4.8-.4c.1-.3.1-.5 0-.8-.1-.2-.3-.4-.7-.5l-.7-.3c-.3-.1-.6-.2-.8-.1s-.4.2-.5.5l-.3.7 2.7 1.1.3-.6z" fill="#ffffff" data-color="3"/>
        <path d="m204.7 143.3.5-2.2 7.3.8-6.8-2.7.5-2.2 9.8 2.4-.4 1.5-7.4-1.8 7.1 3-.3 1.3-7.7-.7 7.4 1.8-.3 1.3-9.7-2.5z" fill="#ffffff" data-color="3"/>
    </g>
</svg>
